<svg width="500" height="500" viewBox="0 0 500 500" fill="none" xmlns="http://www.w3.org/2000/svg">
<g clip-path="url(#clip0_1_2)">
<circle cx="250" cy="250" r="250" fill="#F7F5FF"/>
<path d="M288.862 381.893C345.558 388.836 458.082 357.595 403.411 263.873C397.337 258.666 392.998 242.5 392.998 226.558C393.865 219.037 391.956 201.739 377.377 192.714C369.278 186.928 350.835 185.5 354.815 153.663C356.84 137.464 349.782 99.8595 305.351 79.0324C286.548 61.0979 240.266 35.9897 205.554 79.0324C180.388 82.7928 140.816 104.546 183.859 161.473L191.669 195.317C191.669 226.558 145.676 223.087 158.693 273.419C104.89 311.602 158.693 407.927 288.862 381.893Z" fill="black"/>
<path d="M286.5 289.5C266.669 310.193 234.463 325.211 223 300C221.168 295.97 214.499 271 214.499 263C195.999 262.523 160.1 235.655 184.5 132C192.388 132.167 210.099 127.7 217.833 108.5C224.888 127.333 247.7 166.1 282.5 170.5C324 140 346 225 286.5 229V289.5Z" fill="#FFB0A2"/>
<path d="M270 243C244.4 265 222.333 265.5 214.5 263C214.831 270.056 215.668 276.47 217.5 280.5C244.966 281.7 264.055 255.667 270 243Z" fill="black"/>
<mask id="mask0_1_2" style="mask-type:alpha" maskUnits="userSpaceOnUse" x="0" y="0" width="500" height="500">
<circle cx="250" cy="250" r="250" fill="#F74D77"/>
</mask>
<g mask="url(#mask0_1_2)">
<path d="M287.02 280H216.363C215.259 280 214.363 280.895 214.363 282V313.125C34.0006 359 -44.6503 572.064 72.0002 585.615C131.622 563.03 334.126 608.544 377.676 676C392.711 668.443 454.107 624.671 423 570.5C517.683 532.975 478.327 401.041 289.02 302.586V282C289.02 280.895 288.125 280 287.02 280Z" fill="#FE4D7B"/>
<path d="M330.921 463.135L315.354 463.602M315.354 463.602L175.258 467.804L159.692 519.173C252.448 591.621 332.238 604.079 383.847 582.951C414.979 638.954 392.667 668.58 377.62 676.392C334.034 606.655 145.171 622.651 85.4997 646M315.354 463.602C314.836 449.436 311.307 414.879 301.345 389.973" stroke="#E7073E" stroke-width="5" stroke-linecap="round"/>
<path d="M133.035 462.314C98.6634 412.535 147.357 447.499 176 471.204L162.666 509.722C82.0699 496.685 74.761 479.05 81.181 471.862C71.0797 464.355 77.9442 463.056 83.2965 462.314C75.449 456.891 78.2178 451.943 85.6256 453.885C77.1386 448.299 82.3533 445.42 88.5889 447.498L133.035 462.314Z" fill="#F9B286"/>
</g>
<path d="M221 147C225.333 145.667 234.6 145 237 153" stroke="black" stroke-width="5" stroke-linecap="round" stroke-linejoin="round"/>
<path d="M196.5 148.5C193 145.667 184.9 141.7 180.5 148.5" stroke="black" stroke-width="5" stroke-linecap="round" stroke-linejoin="round"/>
<path d="M288.5 204.5L294.929 195.5M306 180L294.929 195.5M309 195.5H294.929" stroke="black" stroke-width="5" stroke-linecap="round" stroke-linejoin="round"/>
<path d="M313.622 173.495C313.967 168.322 314.242 155.909 312.587 147.633" stroke="#FF9C12" stroke-width="5" stroke-linecap="round"/>
<path d="M304.31 148.667V168.322" stroke="#FF9C12" stroke-width="5" stroke-linecap="round"/>
<path d="M293.548 130.314L300.389 148.559C301.048 150.317 302.841 151.38 304.7 151.114L312.923 149.94C314.733 149.681 316.138 148.228 316.334 146.41L318.521 126.202C318.777 123.836 316.923 121.772 314.544 121.772H312.586C307.431 81.5574 263.183 34.3221 206.55 78.0726C206.459 78.143 206.509 78.3041 206.616 78.2633C226.014 70.908 274.564 61.4182 298.104 124.668L296.509 124.987C294.091 125.471 292.682 128.005 293.548 130.314Z" fill="#ADA3F9"/>
<ellipse cx="22.7587" cy="33.1034" rx="22.7587" ry="33.1034" transform="matrix(-1 0 0 1 325 166.253)" fill="#ADA3F9"/>
<ellipse cx="15.5173" cy="27.931" rx="15.5173" ry="27.931" transform="matrix(-1 0 0 1 325 172.46)" fill="#FF9C12"/>
<path d="M205.286 176L201 196.5C201.643 198.787 209.343 201.204 215 196.5" stroke="black" stroke-width="5" stroke-linecap="round"/>
<path d="M230 173.5C230 178.747 228.209 183 226 183C223.791 183 222 178.747 222 173.5C222 168.253 223.791 164 226 164C227.15 164 228.187 165.153 228.917 167C229.041 167.314 229.156 167.648 229.262 168C229.727 169.552 230 171.45 230 173.5Z" fill="black"/>
<path d="M228.917 167C228.187 165.153 227.15 164 226 164C223.791 164 222 168.253 222 173.5C222 178.747 223.791 183 226 183C228.209 183 230 178.747 230 173.5C230 171.45 229.727 169.552 229.262 168M228.917 167C229.778 165.833 232.1 164.2 234.5 167M228.917 167C229.041 167.314 229.156 167.648 229.262 168M229.262 168L231 167" stroke="black" stroke-linecap="round" stroke-linejoin="round"/>
<path d="M181.5 173.5C181.5 178.747 183.291 183 185.5 183C187.709 183 189.5 178.747 189.5 173.5C189.5 168.253 187.709 164 185.5 164C184.35 164 183.313 165.153 182.583 167C182.459 167.314 182.344 167.648 182.238 168C181.773 169.552 181.5 171.45 181.5 173.5Z" fill="black"/>
<path d="M182.583 167C183.313 165.153 184.35 164 185.5 164C187.709 164 189.5 168.253 189.5 173.5C189.5 178.747 187.709 183 185.5 183C183.291 183 181.5 178.747 181.5 173.5C181.5 171.45 181.773 169.552 182.238 168M182.583 167C181.722 165.833 179.4 164.2 177 167M182.583 167C182.459 167.314 182.344 167.648 182.238 168M182.238 168L180.5 167" stroke="black" stroke-linecap="round" stroke-linejoin="round"/>
<path d="M238 212C235 216.333 227.2 225.6 220 228" stroke="black" stroke-width="5" stroke-linecap="round"/>
</g>
<defs>
<clipPath id="clip0_1_2">
<rect width="500" height="500" fill="white"/>
</clipPath>
</defs>
</svg>
